<svg xmlns="http://www.w3.org/2000/svg" width="96" height="56" viewBox="0 0 96 56">
  <g fill="none" fill-rule="evenodd" transform="rotate(90 48 48)">
    <path fill="#FADB36" d="M48.2286563,0.298909091 C52.4628805,0.298909091 55.6862613,3.60327273 55.6862613,7.67781818 L55.6862613,88.5861818 C55.6862613,92.6618182 52.1078093,95.9661818 47.8735851,95.9661818 L8.09895232,95.9661818 C3.86028978,95.9661818 0.286276161,92.6618182 0.286276161,88.5861818 L0.286276161,7.67781818 C0.286276161,3.60327273 3.86028978,0.298909091 8.09895232,0.298909091 L48.2286563,0.298909091"/>
    <path fill="#020807" d="M33.695148 62.9509091C33.695148 64.7465455 32.2060681 65.6214545 30.6393164 65.9389091L27.8198291 65.9389091C26.2419814 65.604 24.751792 64.6647273 24.751792 62.8941818 24.751792 60.5803636 27.2750167 59.6541818 29.4065536 59.6541818 31.5380904 59.6541818 33.695148 60.6130909 33.695148 62.9509091L33.695148 62.9509091zM21.5983158 61.7487273C21.5983158 63.5585455 22.6368991 64.9581818 23.8962923 65.9389091L15.9160669 65.9389091 15.9160669 69.4298182 36.5090873 69.4298182 36.5090873 65.9389091 34.7514848 65.9389091C36.021974 64.9014545 36.5090873 63.3796364 36.5090873 61.968 36.5090873 58.2578182 33.2146923 56.1632727 29.4065536 56.1632727 25.5961957 56.1632727 21.5983158 58.2578182 21.5983158 61.7487273L21.5983158 61.7487273zM32.6687703 45.7145455C33.3434056 46.3712727 33.8571492 47.3192727 33.8571492 48.4069091 33.8571492 49.6810909 33.3389672 50.6683636 32.1516978 50.6683636 30.0123938 50.6683636 29.4065536 48.6785455 29.4065536 47.0847273L29.4065536 44.9901818C31.1164433 44.9901818 32.0840124 45.1450909 32.6687703 45.7145455L32.6687703 45.7145455zM21.5983158 47.784C21.5983158 49.3003636 22.1897313 50.9923636 23.0274774 52.6658182L25.8558415 52.6712727C24.4344471 50.5767273 23.0141622 44.9901818 27.2750167 44.9901818L27.2750167 47.0847273C27.2750167 50.0890909 28.1804483 54.0643636 32.3702885 54.0643636 35.0444186 54.0643636 36.5090873 52.3407273 36.5090873 49.4716364 36.5090873 47.7970909 35.0888025 45.6883636 33.6685176 44.9901818L36.5090873 44.9901818 36.5090873 42.1974545 27.6600471 42.1974545 27.6600471 42.1974545C23.5756186 42.2083636 21.5983158 43.6298182 21.5983158 47.784L21.5983158 47.784zM21.5983158 31.7225455C21.5983158 33.8170909 23.0141622 35.2134545 24.4344471 35.9116364L22.3084582 35.9116364 22.3339789 39.4036364 36.5090873 39.4036364 36.5090873 35.9116364 26.9831926 35.9116364C25.5029895 35.2014545 24.4344471 33.9829091 24.4344471 32.4207273 24.4344471 30.1385455 26.2797077 30.3250909 27.9862687 30.3250909L36.5090873 30.3250909 36.5090873 26.8341818 27.9862687 26.8341818C24.826135 26.8341818 21.5983158 27.5323636 21.5983158 31.7225455"/>
    <polyline fill="#020807" points="28.698 17.051 22.335 11.975 22.335 16.173 27.83 20.427 27.83 20.482 27.079 20.613 15.918 20.613 15.918 24.041 36.51 24.041 36.51 20.613 30.095 20.613 29.423 20.482 29.423 20.427 36.51 15.639 36.51 11.12 28.698 17.051"/>
    <polyline fill="#020807" points="36.509 82.699 36.487 79.209 22.304 79.209 22.312 82.699 36.509 82.699"/>
    <polygon fill="#020807" points="27.276 77.072 30.097 77.072 30.097 71.525 27.276 71.525"/>
    <path fill="#020807" d="M16.6217709,80.9530909 C16.6217709,81.9174545 17.4162427,82.6985455 18.3971269,82.6985455 C19.3791207,82.6985455 20.1735926,81.9174545 20.1735926,80.9530909 C20.1735926,79.9887273 19.3791207,79.2076364 18.3971269,79.2076364 C17.4162427,79.2076364 16.6217709,79.9887273 16.6217709,80.9530909"/>
    <polyline fill="#020807" points="47.874 70.577 47.874 71.413 43.254 73.82 47.874 73.82 47.874 74.451 42.71 74.451 42.71 73.404 46.927 71.208 42.71 71.208 42.71 70.577 47.874 70.577"/>
    <path fill="#020807" d="M46.313491 64.9832727C46.1059963 64.9832727 45.9406663 65.0138182 45.8175009 65.076 45.6943356 65.1370909 45.591143 65.2483636 45.505704 65.4098182 45.4468954 65.5189091 45.4102786 65.652 45.3925251 65.8069091 45.3747715 65.9618182 45.3658947 66.1516364 45.3658947 66.3741818L45.3658947 67.4345455 47.2877176 67.4345455 47.2877176 66.5410909C47.2877176 66.2465455 47.2721833 66.0032727 47.2411146 65.8156364 47.2100458 65.6269091 47.1523467 65.472 47.0691269 65.352 46.9792495 65.2243636 46.876057 65.1316364 46.7606588 65.0716364 46.6452607 65.0127273 46.495465 64.9832727 46.313491 64.9832727L46.313491 64.9832727zM43.9589251 65.4163636C43.8335406 65.4163636 43.7281288 65.4370909 43.6426898 65.4774545 43.5572508 65.5189091 43.4884557 65.5843636 43.435195 65.6749091 43.371948 65.7818182 43.3342217 65.9116364 43.3186873 66.0643636 43.3042625 66.2170909 43.2964954 66.4047273 43.2964954 66.6294545L43.2964954 67.4345455 44.7877944 67.4345455 44.7877944 66.5618182C44.7877944 66.3501818 44.7755889 66.1821818 44.7545065 66.0567273 44.7323146 65.9323636 44.6868211 65.8156364 44.618026 65.7098182 44.5481214 65.6029091 44.458244 65.5276364 44.3483938 65.4829091 44.2396533 65.4381818 44.1087207 65.4163636 43.9589251 65.4163636L43.9589251 65.4163636zM46.2857511 64.2807273C46.5420681 64.2807273 46.7695356 64.3287273 46.9648248 64.4236364 47.1623331 64.5196364 47.3243344 64.6483636 47.4508285 64.8098182 47.6039529 65.0007273 47.7126935 65.2101818 47.7770502 65.4381818 47.8414068 65.6672727 47.8746947 65.9574545 47.8746947 66.3098182L47.8746947 68.1098182 42.7106279 68.1098182 42.7106279 66.6065455C42.7106279 66.2356364 42.723943 65.9585455 42.751683 65.7741818 42.7794229 65.5898182 42.837122 65.4141818 42.9258898 65.2450909 43.024644 65.0596364 43.1522477 64.9243636 43.3087009 64.8403636 43.4651542 64.7563636 43.650457 64.7138182 43.8690477 64.7138182 44.1131591 64.7138182 44.3228731 64.7749091 44.4937511 64.8981818 44.6668483 65.0203636 44.8044384 65.1850909 44.9087406 65.3890909L44.9364805 65.3890909C45.0086043 65.0454545 45.1617288 64.7749091 45.3958539 64.5774545 45.6310885 64.3789091 45.9273511 64.2807273 46.2857511 64.2807273L46.2857511 64.2807273zM47.4918836 57.9709091C47.6217065 58.248 47.7337759 58.5512727 47.8292012 58.8796364 47.9257362 59.208 47.9734489 59.5254545 47.9734489 59.832 47.9734489 60.228 47.917969 60.5901818 47.8070093 60.9196364 47.6971591 61.2501818 47.5296099 61.5305455 47.3076904 61.7629091 47.0835517 61.9963636 46.8039331 62.1774545 46.4666155 62.304 46.1304074 62.4316364 45.7376099 62.496 45.2860037 62.496 44.4604632 62.496 43.8091294 62.2581818 43.3320025 61.7847273 42.8548755 61.3101818 42.6152025 60.66 42.6152025 59.832 42.6152025 59.544 42.6507096 59.2494545 42.7217238 58.9472727 42.7916285 58.6461818 42.911465 58.3221818 43.0801238 57.9741818L43.895678 57.9741818 43.895678 58.0352727C43.8401981 58.1061818 43.7669647 58.2076364 43.6770873 58.3418182 43.5872099 58.476 43.5117573 58.608 43.451839 58.7378182 43.3797152 58.8949091 43.3197969 59.0727273 43.2731938 59.2723636 43.2254811 59.4709091 43.2021796 59.6956364 43.2021796 59.9476364 43.2021796 60.516 43.3874824 60.9665455 43.7580879 61.2970909 44.1286935 61.6287273 44.6313412 61.7923636 45.2649214 61.7923636 45.9328991 61.7923636 46.4533003 61.6210909 46.8239059 61.2752727 47.1945115 60.9294545 47.3809238 60.4581818 47.3809238 59.8625455 47.3809238 59.6454545 47.3587319 59.4272727 47.314348 59.2101818 47.2699641 58.9930909 47.2144842 58.8032727 47.1445796 58.6396364L45.8785288 58.6396364 45.8785288 60 45.2760173 60 45.2760173 57.9709091 47.4918836 57.9709091M47.4918836 47.8669091C47.6217065 48.144 47.7337759 48.4472727 47.8292012 48.7756364 47.9257362 49.104 47.9734489 49.4214545 47.9734489 49.728 47.9734489 50.124 47.917969 50.4872727 47.8070093 50.8156364 47.6971591 51.1461818 47.5296099 51.4265455 47.3076904 51.6589091 47.0835517 51.8923636 46.8039331 52.0734545 46.4666155 52.2 46.1304074 52.3276364 45.7376099 52.3909091 45.2860037 52.3909091 44.4604632 52.3909091 43.8091294 52.1541818 43.3320025 51.6807273 42.8548755 51.2061818 42.6152025 50.556 42.6152025 49.728 42.6152025 49.44 42.6507096 49.1454545 42.7217238 48.8432727 42.7916285 48.5421818 42.911465 48.2181818 43.0801238 47.8701818L43.895678 47.8701818 43.895678 47.9312727C43.8401981 48.0021818 43.7669647 48.1047273 43.6770873 48.2378182 43.5872099 48.372 43.5117573 48.504 43.451839 48.6338182 43.3797152 48.7898182 43.3197969 48.9687273 43.2731938 49.1683636 43.2254811 49.3658182 43.2021796 49.5916364 43.2021796 49.8447273 43.2021796 50.4130909 43.3874824 50.8625455 43.7580879 51.1930909 44.1286935 51.5236364 44.6313412 51.6894545 45.2649214 51.6894545 45.9328991 51.6894545 46.4533003 51.516 46.8239059 51.1712727 47.1945115 50.8254545 47.3809238 50.3541818 47.3809238 49.7585455 47.3809238 49.5403636 47.3587319 49.3232727 47.314348 49.1061818 47.2699641 48.8890909 47.2144842 48.6992727 47.1445796 48.5345455L45.8785288 48.5345455 45.8785288 49.896 45.2760173 49.896 45.2760173 47.8669091 47.4918836 47.8669091M44.163091 42.948C44.014405 42.948 43.884582 42.9741818 43.7702935 43.0243636 43.6548954 43.0756364 43.5583604 43.1607273 43.4795789 43.2785455 43.4130031 43.3767273 43.3652904 43.4923636 43.3397697 43.6265455 43.3131393 43.7607273 43.2998241 43.9189091 43.2998241 44.1010909L43.2998241 44.8952727 45.249387 44.8952727 45.249387 44.2134545C45.249387 43.9996364 45.2294142 43.8130909 45.1916879 43.6538182 45.152852 43.4945455 45.0818378 43.3592727 44.9786452 43.248 44.8810006 43.1454545 44.7689313 43.0701818 44.6435467 43.0210909 44.5170526 42.972 44.3572706 42.948 44.163091 42.948L44.163091 42.948zM47.8735851 41.3694545L47.8735851 42.2454545 45.8208297 43.944 45.8208297 44.8952727 47.8735851 44.8952727 47.8735851 45.5705455 42.7095183 45.5705455 42.7095183 44.148C42.7095183 43.8414545 42.729491 43.5850909 42.7705461 43.3810909 42.8116012 43.176 42.8826155 42.9927273 42.9869176 42.8290909 43.104535 42.6447273 43.2532211 42.5007273 43.4329759 42.3970909 43.6127307 42.2934545 43.8390885 42.2421818 44.1142687 42.2421818 44.4870935 42.2421818 44.7977808 42.3349091 45.0496594 42.5181818 45.3004285 42.7025455 45.4890601 42.9567273 45.6166638 43.2785455L47.8735851 41.3694545 47.8735851 41.3694545zM45.2937709 35.8745455C44.623574 35.8745455 44.105392 36.0218182 43.741444 36.3174545 43.377496 36.6130909 43.195522 37.0167273 43.195522 37.5283636 43.195522 38.0443636 43.377496 38.4490909 43.741444 38.7436364 44.105392 39.0381818 44.623574 39.1854545 45.2937709 39.1854545 45.9706254 39.1854545 46.489917 39.036 46.8494266 38.7349091 47.2089362 38.4349091 47.3875814 38.0323636 47.3875814 37.5283636 47.3875814 37.0232727 47.2089362 36.6218182 46.8494266 36.3229091 46.489917 36.024 45.9706254 35.8745455 45.2937709 35.8745455L45.2937709 35.8745455zM43.3031529 35.8134545C43.5339492 35.6061818 43.8180062 35.448 44.1531046 35.3378182 44.4870935 35.2265455 44.868795 35.172 45.2937709 35.172 45.7198563 35.172 46.1004483 35.2287273 46.4366563 35.3410909 46.7728644 35.4534545 47.0535926 35.6105455 47.2777313 35.8134545 47.5107467 36.0218182 47.6871728 36.2694545 47.8047901 36.5541818 47.9224074 36.84 47.9812161 37.1650909 47.9812161 37.5316364 47.9812161 37.8883636 47.9212978 38.2134545 47.8014613 38.5047273 47.6805152 38.7970909 47.5063084 39.0458182 47.2777313 39.2498182 47.0480446 39.4549091 46.7673164 39.612 46.4344372 39.7221818 46.1015579 39.8323636 45.7220755 39.8869091 45.2937709 39.8869091 44.8721238 39.8869091 44.4959703 39.8334545 44.1608718 39.7243636 43.826883 39.6152727 43.5417164 39.456 43.3031529 39.2465455 43.0756854 39.0469091 42.9025882 38.7981818 42.7827517 38.5014545 42.6629152 38.2047273 42.6018873 37.8818182 42.6018873 37.5316364 42.6018873 37.1672727 42.6629152 36.8410909 42.7849709 36.5509091 42.905917 36.2618182 43.0790142 36.0163636 43.3031529 35.8134545L43.3031529 35.8134545zM45.7997474 29.1610909C46.1736817 29.1610909 46.501013 29.2014545 46.779522 29.2821818 47.058031 29.3629091 47.2899368 29.4949091 47.4752396 29.6792727 47.650556 29.8538182 47.7792693 30.0589091 47.8591604 30.2923636 47.9412706 30.528 47.9812161 30.8007273 47.9812161 31.1116364 47.9812161 31.4301818 47.9379418 31.7072727 47.8525028 31.944 47.7681734 32.1796364 47.6416793 32.3781818 47.4752396 32.5396364 47.2854985 32.724 47.0569214 32.856 46.7883988 32.9378182 46.5198762 33.0174545 46.1903257 33.0578182 45.7997474 33.0578182L42.7095183 33.0578182 42.7095183 32.3836364 45.8341449 32.3836364C46.1137635 32.3836364 46.3345734 32.3650909 46.4965746 32.3269091 46.6585759 32.2898182 46.8061523 32.2265455 46.9370848 32.1370909 47.0879901 32.0378182 47.201169 31.9025455 47.2766217 31.7301818 47.3531839 31.5589091 47.3909102 31.3527273 47.3909102 31.1116364 47.3909102 30.8683636 47.3542935 30.6610909 47.2788409 30.4909091 47.2044978 30.3207273 47.0902093 30.1843636 46.9370848 30.0818182 46.8061523 29.9934545 46.6552471 29.9301818 46.4854786 29.892 46.3146006 29.8549091 46.1037771 29.8363636 45.8518985 29.8363636L42.7095183 29.8363636 42.7095183 29.1610909 45.7997474 29.1610909M44.2873659 24.1374545C44.1098303 24.1374545 43.9544867 24.168 43.8235542 24.2301818 43.6904025 24.2912727 43.5838811 24.3850909 43.4995517 24.5083636 43.4285375 24.6185455 43.377496 24.7429091 43.3464272 24.8825455 43.3142489 25.0221818 43.2987146 25.1989091 43.2987146 25.4127273L43.2987146 26.0803636 45.3625659 26.0803636 45.3625659 25.512C45.3625659 25.2392727 45.3381548 25.0167273 45.2882229 24.8465455 45.238291 24.6763636 45.1595096 24.5378182 45.0496594 24.4309091 44.9386997 24.324 44.822192 24.2476364 44.7001362 24.204 44.5769709 24.1592727 44.4393808 24.1374545 44.2873659 24.1374545L44.2873659 24.1374545zM44.2696124 23.4349091C44.4992991 23.4349091 44.7112322 23.4741818 44.9065214 23.5527273 45.1018105 23.6312727 45.2704693 23.7414545 45.414717 23.8821818 45.5922526 24.0567273 45.7265139 24.2629091 45.8152817 24.5018182 45.9040495 24.7407273 45.9484334 25.0418182 45.9484334 25.4061818L45.9484334 26.0803636 47.8735851 26.0803636 47.8735851 26.7556364 42.7095183 26.7556364 42.7095183 25.3789091C42.7095183 25.0734545 42.7361486 24.816 42.7871901 24.6043636 42.8393412 24.3927273 42.9214514 24.2050909 43.0324111 24.0425455 43.1633437 23.8483636 43.3275641 23.7 43.5250724 23.5930909 43.7214712 23.4883636 43.9700211 23.4349091 44.2696124 23.4349091L44.2696124 23.4349091z"/>
  </g>
</svg>
